# xmcd
#
# Track frame offsets:
#	150
#	28454
#	45459
#	65450
#	89684
#	110970
#	128401
#
# Disc length: 1985 seconds
# Revision: 0
# Processed by: cddbd v1.5.2PL0 Copyright (c) Steve Scherf et al.
# Submitted via: dBpowerAMP V12.0
#
DISCID=6207bf07
DTITLE=Ali Penney and The Money Makers - And On It Goes
DYEAR=2013
DGENRE=Blues
TTITLE0=Sontaneous Combustion
TTITLE1=And On It Goes
TTITLE2=Devil On My Back
TTITLE3=I'm Number One In The Number Two Business
TTITLE4=Mother's Love
TTITLE5=No No No
TTITLE6=Nobody Really
EXTD=
EXTT0=
EXTT1=
EXTT2=
EXTT3=
EXTT4=
EXTT5=
EXTT6=
PLAYORDER=
